<mxfile host="app.diagrams.net" modified="2023-05-29T13:20:19.025Z" agent="Mozilla/5.0 (Windows NT 10.0; Win64; x64) AppleWebKit/537.36 (KHTML, like Gecko) Chrome/113.0.0.0 Safari/537.36" etag="TdOnQ0xH2BhXfNvBtf22" version="21.3.3" type="github">
  <diagram name="Page-1" id="t06ZGgocAvR-ap_uRuUS">
    <mxGraphModel dx="969" dy="506" grid="1" gridSize="10" guides="1" tooltips="1" connect="1" arrows="1" fold="1" page="1" pageScale="1" pageWidth="850" pageHeight="1100" math="0" shadow="0">
      <root>
        <mxCell id="0" />
        <mxCell id="1" parent="0" />
      </root>
    </mxGraphModel>
  </diagram>
</mxfile>
